<svg width="158" height="23" viewBox="0 0 158 23" fill="none" xmlns="http://www.w3.org/2000/svg">
<g clip-path="url(#clip0_89_121)">
<path d="M11.5 23C17.8513 23 23 17.8513 23 11.5C23 5.14873 17.8513 0 11.5 0C5.14873 0 0 5.14873 0 11.5C0 17.8513 5.14873 23 11.5 23Z" fill="url(#paint0_linear_89_121)"/>
<path d="M11.5 23C17.8513 23 23 17.8513 23 11.5C23 5.14873 17.8513 0 11.5 0C5.14873 0 0 5.14873 0 11.5C0 17.8513 5.14873 23 11.5 23Z" fill="url(#paint1_radial_89_121)"/>
<path d="M3.96094 11.7402C3.9679 13.7675 4.0267 15.7948 4.1373 17.8222C4.3514 17.9093 4.58072 17.9607 4.81814 17.9678C5.57422 17.9908 6.23839 17.5504 6.52 16.8492C6.96015 15.7507 7.42015 14.6458 7.89129 13.5368C7.99811 13.2853 8.24586 13.1232 8.521 13.124C7.00246 12.6597 5.48091 12.1954 3.96094 11.7402Z" fill="url(#paint2_linear_89_121)"/>
<path d="M17.6317 8.43164C17.6936 11.5751 17.6549 14.7187 17.5156 17.8622C17.7236 17.9381 17.949 17.9755 18.1837 17.9685C19.228 17.9354 20.1353 17.0523 20.1862 16.0073C20.3029 13.4942 20.3255 10.9812 20.254 8.46816C19.3799 8.45383 18.5058 8.44166 17.6317 8.43164Z" fill="url(#paint3_linear_89_121)"/>
<path d="M9.42999 10.8151C9.42905 11.6202 9.43031 12.4252 9.43372 13.2303C9.43543 13.611 9.74543 13.921 10.1253 13.922C10.5841 13.923 11.0429 13.9235 11.5017 13.9235C11.5017 12.8871 11.5017 11.8508 11.5017 10.8145C10.8111 10.8145 10.1205 10.8147 9.42999 10.8151Z" fill="url(#paint4_linear_89_121)"/>
<path d="M10.8087 10.8145C10.8084 11.6205 10.8088 12.4266 10.81 13.2326C10.8106 13.614 11.1193 13.9235 11.4993 13.9236C11.9581 13.9236 12.4169 13.923 12.8756 13.922C13.2555 13.921 13.5656 13.6112 13.5673 13.2303C13.5707 12.4253 13.5719 11.6202 13.571 10.8152C12.6502 10.8145 11.7295 10.8143 10.8087 10.8145Z" fill="url(#paint5_linear_89_121)"/>
<path d="M18.8233 16.0412C18.9273 13.3659 18.9427 10.6908 18.8694 8.01552C13.4999 7.93026 8.13039 7.93821 2.76092 8.03938C2.674 10.6954 2.69224 13.3513 2.81559 16.0073C2.85373 16.8163 3.40798 17.5253 4.13728 17.8229C4.59818 17.6583 4.97166 17.3022 5.16159 16.8221C5.59253 15.7315 6.04606 14.6331 6.51351 13.5291C6.61944 13.2789 6.86687 13.1176 7.14197 13.119C9.58873 13.1311 12.0355 13.133 14.4823 13.1247C14.7574 13.1238 15.0052 13.2863 15.112 13.5375C15.5831 14.6465 16.0431 15.7514 16.4833 16.8499C16.6773 17.3334 17.0544 17.6936 17.5171 17.8623C18.2436 17.5676 18.791 16.856 18.8233 16.0412Z" fill="url(#paint6_linear_89_121)"/>
<path d="M14.254 10.9288C12.4168 10.9275 10.5795 10.9275 8.74219 10.9288C8.74363 9.74218 8.75131 8.55557 8.76532 7.36891C10.5872 7.3562 12.409 7.3562 14.2308 7.36891C14.2448 8.55557 14.2526 9.74218 14.254 10.9288Z" fill="url(#paint7_linear_89_121)"/>
<path d="M14.2446 8.40294C12.4157 8.39355 10.5868 8.39355 8.75781 8.40294C8.76482 7.59906 8.7747 6.79523 8.78751 5.99135C10.5966 5.97424 12.4057 5.97424 14.2148 5.99135C14.2276 6.79518 14.2376 7.59906 14.2446 8.40294Z" fill="url(#paint8_linear_89_121)"/>
<path d="M2.74762 8.46864C2.68738 10.5068 4.41333 12.1765 6.50754 12.1889C8.6031 12.1971 10.3026 10.4961 10.3098 8.39838C10.309 6.30107 8.66321 4.60397 6.62739 4.65136C4.59292 4.7023 2.8133 6.43076 2.74762 8.46864Z" fill="url(#paint9_linear_89_121)"/>
<path d="M2.74762 8.46864C2.68738 10.5068 4.41333 12.1765 6.50754 12.1889C8.6031 12.1971 10.3026 10.4961 10.3098 8.39838C10.309 6.30107 8.66321 4.60397 6.62739 4.65136C4.59292 4.7023 2.8133 6.43076 2.74762 8.46864Z" fill="url(#paint10_linear_89_121)"/>
<path d="M12.6914 8.39843C12.6986 10.4962 14.3981 12.1972 16.4937 12.189C18.5879 12.1764 20.3138 10.507 20.2536 8.46869C20.1879 6.43094 18.4083 4.70239 16.3738 4.65136C14.338 4.60397 12.6922 6.30103 12.6914 8.39843Z" fill="url(#paint11_linear_89_121)"/>
<path d="M13.9532 8.40169C13.9633 9.79876 15.0977 10.9314 16.4966 10.9317C17.8949 10.9308 19.0292 9.81897 18.9946 8.44854C18.9585 7.07824 17.7884 5.93336 16.4167 5.90668C15.0445 5.88103 13.9457 7.0048 13.9532 8.40169Z" fill="url(#paint12_linear_89_121)"/>
<path d="M14.6407 8.40544C14.6503 9.42023 15.4769 10.244 16.4939 10.2467C17.5106 10.2489 18.33 9.44026 18.3072 8.43949C18.2839 7.4389 17.4384 6.60861 16.4358 6.59204C15.4328 6.57573 14.6322 7.39093 14.6407 8.40544Z" fill="url(#paint13_linear_89_121)"/>
<path d="M16.8333 9.56358C15.8171 9.55833 14.989 8.73369 14.9759 7.71972C14.9738 7.56222 14.9914 7.40931 15.0263 7.26367C14.7816 7.57507 14.6364 7.97227 14.6407 8.40559C14.6503 9.42037 15.4769 10.2441 16.4939 10.2468C17.3523 10.2491 18.0705 9.67166 18.259 8.89065C17.9303 9.30281 17.4148 9.56691 16.8333 9.56358Z" fill="url(#paint14_linear_89_121)"/>
<path d="M5.77936 6.26335C5.73278 7.70593 5.70605 9.14859 5.69922 10.5912C5.69859 10.7169 5.80142 10.8188 5.9285 10.8185C6.31214 10.8178 6.69581 10.8172 7.07945 10.8166C7.20662 10.8165 7.30985 10.7139 7.3103 10.5874C7.3152 9.13732 7.33451 7.68733 7.36816 6.23734C7.37108 6.11075 7.27207 6.00986 7.14692 6.01174C6.76913 6.01745 6.39133 6.02392 6.01354 6.03115C5.88843 6.03353 5.78345 6.13753 5.77936 6.26335Z" fill="url(#paint15_linear_89_121)"/>
<path d="M8.93866 7.82791C8.93493 8.21082 8.93179 8.59369 8.92927 8.97661C8.92846 9.10333 8.82496 9.2067 8.69819 9.20719C8.23887 9.20894 7.77954 9.21105 7.32022 9.2137C7.05486 8.94813 6.7905 8.68322 6.52734 8.41922C6.79894 8.15027 7.0704 7.88078 7.34151 7.61103C7.7985 7.60649 8.25549 7.60267 8.71243 7.59962C8.83862 7.59867 8.93987 7.701 8.93866 7.82791Z" fill="url(#paint16_linear_89_121)"/>
<path d="M6.52774 8.42005C6.25614 8.68904 5.98446 8.95749 5.71295 9.22536C5.25362 9.22891 4.7943 9.23295 4.33497 9.2374C4.20807 9.23861 4.10699 9.13821 4.10942 9.01342C4.11665 8.63639 4.12563 8.25927 4.13637 7.88224C4.13996 7.75727 4.24531 7.65417 4.37149 7.65202C4.82848 7.64425 5.28547 7.63715 5.74246 7.63086C6.00278 7.89293 6.26463 8.15604 6.52774 8.42005Z" fill="url(#paint17_linear_89_121)"/>
</g>
<path d="M153.059 16.9235C152.092 16.9235 151.259 16.7168 150.56 16.3034C149.865 15.8858 149.328 15.2999 148.949 14.5456C148.574 13.7871 148.387 12.8986 148.387 11.8801C148.387 10.8745 148.574 9.9881 148.949 9.22106C149.328 8.45401 149.857 7.85529 150.534 7.42489C151.216 6.9945 152.013 6.7793 152.925 6.7793C153.479 6.7793 154.016 6.87092 154.536 7.05416C155.056 7.23739 155.522 7.52504 155.936 7.91708C156.349 8.30913 156.675 8.81836 156.914 9.44478C157.152 10.0669 157.272 10.8233 157.272 11.714V12.3915H149.467V10.9597H155.399C155.399 10.4569 155.297 10.0115 155.092 9.62376C154.887 9.23171 154.6 8.92276 154.229 8.69691C153.863 8.47106 153.432 8.35813 152.938 8.35813C152.401 8.35813 151.932 8.49023 151.532 8.75444C151.135 9.01438 150.828 9.35529 150.611 9.77717C150.398 10.1948 150.292 10.6486 150.292 11.1387V12.2573C150.292 12.9135 150.407 13.4718 150.637 13.932C150.871 14.3922 151.197 14.7438 151.615 14.9867C152.032 15.2253 152.52 15.3446 153.078 15.3446C153.441 15.3446 153.771 15.2935 154.069 15.1912C154.368 15.0847 154.625 14.927 154.843 14.7182C155.06 14.5094 155.226 14.2516 155.341 13.9448L157.15 14.2708C157.005 14.8034 156.745 15.2701 156.37 15.6706C156 16.0669 155.533 16.3759 154.971 16.5975C154.412 16.8148 153.775 16.9235 153.059 16.9235Z" fill="white"/>
<path d="M139.982 10.8958V16.7253H138.07V6.90714H139.905V8.50515H140.026C140.252 7.98526 140.606 7.56765 141.087 7.25231C141.573 6.93697 142.185 6.7793 142.922 6.7793C143.591 6.7793 144.177 6.91992 144.68 7.20117C145.183 7.47816 145.572 7.89151 145.849 8.44123C146.126 8.99094 146.265 9.67063 146.265 10.4803V16.7253H144.354V10.7104C144.354 9.99876 144.168 9.44265 143.798 9.04208C143.427 8.63725 142.918 8.43484 142.27 8.43484C141.827 8.43484 141.433 8.53072 141.087 8.72248C140.746 8.91424 140.476 9.19549 140.276 9.56623C140.08 9.93271 139.982 10.3759 139.982 10.8958Z" fill="white"/>
<path d="M131.362 16.9235C130.441 16.9235 129.638 16.7125 128.952 16.2907C128.266 15.8688 127.733 15.2786 127.354 14.5201C126.975 13.7615 126.785 12.8752 126.785 11.861C126.785 10.8425 126.975 9.95188 127.354 9.1891C127.733 8.42631 128.266 7.83398 128.952 7.41211C129.638 6.99023 130.441 6.7793 131.362 6.7793C132.282 6.7793 133.086 6.99023 133.772 7.41211C134.458 7.83398 134.99 8.42631 135.37 9.1891C135.749 9.95188 135.939 10.8425 135.939 11.861C135.939 12.8752 135.749 13.7615 135.37 14.5201C134.99 15.2786 134.458 15.8688 133.772 16.2907C133.086 16.7125 132.282 16.9235 131.362 16.9235ZM131.368 15.3191C131.965 15.3191 132.459 15.1614 132.851 14.8461C133.243 14.5307 133.533 14.111 133.721 13.5868C133.912 13.0627 134.008 12.4853 134.008 11.8546C134.008 11.2282 133.912 10.6529 133.721 10.1287C133.533 9.60032 133.243 9.17631 132.851 8.85671C132.459 8.53711 131.965 8.37731 131.368 8.37731C130.767 8.37731 130.269 8.53711 129.873 8.85671C129.48 9.17631 129.189 9.60032 128.997 10.1287C128.809 10.6529 128.716 11.2282 128.716 11.8546C128.716 12.4853 128.809 13.0627 128.997 13.5868C129.189 14.111 129.48 14.5307 129.873 14.8461C130.269 15.1614 130.767 15.3191 131.368 15.3191Z" fill="white"/>
<path d="M115.546 16.7237V15.407L122.43 5.3331H115.488V3.63281H124.846V4.94957L117.962 15.0234H124.904V16.7237H115.546Z" fill="white"/>
<path d="M102.513 10.9725V16.7253H100.199V6.90714H102.411V8.57546H102.526C102.752 8.02575 103.112 7.58896 103.606 7.26509C104.105 6.94123 104.721 6.7793 105.453 6.7793C106.131 6.7793 106.721 6.92418 107.224 7.21396C107.731 7.50373 108.123 7.92347 108.4 8.47319C108.681 9.02291 108.82 9.68981 108.816 10.4739V16.7253H106.502V10.8319C106.502 10.1756 106.331 9.66211 105.99 9.29137C105.654 8.92063 105.187 8.73526 104.591 8.73526C104.186 8.73526 103.826 8.82475 103.51 9.00373C103.199 9.17844 102.954 9.432 102.775 9.76438C102.6 10.0968 102.513 10.4995 102.513 10.9725Z" fill="white"/>
<path d="M95.5078 12.5952V6.90625H97.8217V16.7244H95.5781V14.9794H95.4759C95.2543 15.5291 94.8899 15.9787 94.3828 16.3281C93.88 16.6776 93.2599 16.8523 92.5227 16.8523C91.8793 16.8523 91.3104 16.7095 90.8161 16.424C90.326 16.1342 89.9425 15.7145 89.6655 15.1648C89.3885 14.6108 89.25 13.9418 89.25 13.1577V6.90625H91.5639V12.7997C91.5639 13.4219 91.7344 13.9162 92.0753 14.2827C92.4162 14.6491 92.8636 14.8324 93.4176 14.8324C93.7585 14.8324 94.0888 14.7493 94.4084 14.5831C94.728 14.4169 94.9901 14.1697 95.1946 13.8416C95.4034 13.5092 95.5078 13.0937 95.5078 12.5952Z" fill="white"/>
<path d="M79.4219 16.7237V3.63281H87.8082V5.62074H81.7933V9.17472H87.233V11.1626H81.7933V16.7237H79.4219Z" fill="white"/>
<path d="M72.7337 9.50231L70.6243 9.73242C70.5646 9.51935 70.4602 9.31907 70.3111 9.13157C70.1662 8.94407 69.9702 8.79279 69.723 8.67773C69.4759 8.56268 69.1733 8.50515 68.8153 8.50515C68.3338 8.50515 67.929 8.60955 67.6009 8.81836C67.277 9.02717 67.1172 9.29776 67.1214 9.63015C67.1172 9.91566 67.2216 10.1479 67.4347 10.3269C67.652 10.5059 68.0099 10.6529 68.5085 10.7679L70.1832 11.1259C71.1122 11.3262 71.8026 11.6436 72.2543 12.0783C72.7102 12.513 72.9403 13.0819 72.9446 13.785C72.9403 14.4029 72.7592 14.9483 72.4013 15.4213C72.0476 15.8901 71.5554 16.2566 70.9247 16.5208C70.294 16.785 69.5696 16.9171 68.7514 16.9171C67.5497 16.9171 66.5824 16.6657 65.8494 16.1628C65.1165 15.6557 64.6797 14.9505 64.5391 14.0471L66.7955 13.8297C66.8977 14.2729 67.1151 14.6074 67.4474 14.8333C67.7798 15.0591 68.2124 15.1721 68.745 15.1721C69.2947 15.1721 69.7358 15.0591 70.0682 14.8333C70.4048 14.6074 70.5732 14.3283 70.5732 13.9959C70.5732 13.7147 70.4645 13.4824 70.2472 13.2992C70.0341 13.1159 69.7017 12.9753 69.25 12.8773L67.5753 12.5257C66.6335 12.3297 65.9368 11.9995 65.4851 11.535C65.0334 11.0662 64.8097 10.4739 64.8139 9.75799C64.8097 9.15288 64.9737 8.62873 65.3061 8.18555C65.6428 7.7381 66.1094 7.39293 66.706 7.15003C67.3068 6.90288 67.9993 6.7793 68.7834 6.7793C69.934 6.7793 70.8395 7.02433 71.5 7.51438C72.1648 8.00444 72.576 8.66708 72.7337 9.50231Z" fill="white"/>
<path d="M56.3178 10.9725V16.7253H54.0039V6.90714H56.2156V8.57546H56.3306C56.5565 8.02575 56.9165 7.58896 57.4109 7.26509C57.9094 6.94123 58.5252 6.7793 59.2582 6.7793C59.9357 6.7793 60.5259 6.92418 61.0288 7.21396C61.5359 7.50373 61.9279 7.92347 62.2049 8.47319C62.4862 9.02291 62.6246 9.68981 62.6204 10.4739V16.7253H60.3065V10.8319C60.3065 10.1756 60.136 9.66211 59.7951 9.29137C59.4585 8.92063 58.9918 8.73526 58.3952 8.73526C57.9904 8.73526 57.6303 8.82475 57.315 9.00373C57.0039 9.17844 56.7589 9.432 56.5799 9.76438C56.4052 10.0968 56.3178 10.4995 56.3178 10.9725Z" fill="white"/>
<path d="M49.3118 16.7237V6.90554H51.6257V16.7237H49.3118ZM50.4751 5.51207C50.1087 5.51207 49.7933 5.39063 49.5291 5.14773C49.2649 4.90057 49.1328 4.6044 49.1328 4.25923C49.1328 3.9098 49.2649 3.61364 49.5291 3.37074C49.7933 3.12358 50.1087 3 50.4751 3C50.8459 3 51.1612 3.12358 51.4212 3.37074C51.6854 3.61364 51.8175 3.9098 51.8175 4.25923C51.8175 4.6044 51.6854 4.90057 51.4212 5.14773C51.1612 5.39063 50.8459 5.51207 50.4751 5.51207Z" fill="white"/>
<path d="M38.0625 20.4071V6.90714H40.3381V8.53072H40.4723C40.5916 8.29208 40.7599 8.03853 40.9773 7.77006C41.1946 7.49734 41.4886 7.26509 41.8594 7.07333C42.2301 6.87731 42.7031 6.7793 43.2784 6.7793C44.0369 6.7793 44.7209 6.97319 45.3303 7.36097C45.9439 7.7445 46.4297 8.31339 46.7876 9.06765C47.1499 9.81765 47.331 10.7381 47.331 11.829C47.331 12.9071 47.1541 13.8233 46.8004 14.5776C46.4467 15.3319 45.9652 15.9071 45.3558 16.3034C44.7464 16.6998 44.0561 16.8979 43.2848 16.8979C42.7223 16.8979 42.2557 16.8042 41.8849 16.6167C41.5142 16.4292 41.2159 16.2033 40.9901 15.9391C40.7685 15.6706 40.5959 15.4171 40.4723 15.1784H40.3764V20.4071H38.0625ZM40.3317 11.8162C40.3317 12.4512 40.4212 13.0073 40.6001 13.4846C40.7834 13.9618 41.0455 14.3347 41.3864 14.6032C41.7315 14.8674 42.1491 14.9995 42.6392 14.9995C43.1506 14.9995 43.5788 14.8631 43.924 14.5904C44.2692 14.3134 44.5291 13.9363 44.7038 13.459C44.8828 12.9775 44.9723 12.4299 44.9723 11.8162C44.9723 11.2069 44.8849 10.6657 44.7102 10.1926C44.5355 9.71964 44.2756 9.3489 43.9304 9.08043C43.5852 8.81197 43.1548 8.67773 42.6392 8.67773C42.1449 8.67773 41.7251 8.80771 41.38 9.06765C41.0348 9.32759 40.7727 9.69194 40.5938 10.1607C40.419 10.6294 40.3317 11.1813 40.3317 11.8162Z" fill="white"/>
<path d="M33.5874 7.23278C33.5277 6.67454 33.2763 6.23988 32.8331 5.9288C32.3942 5.61772 31.8232 5.46218 31.12 5.46218C30.6257 5.46218 30.2017 5.53675 29.848 5.6859C29.4943 5.83505 29.2237 6.03746 29.0362 6.29315C28.8487 6.54883 28.7528 6.84073 28.7486 7.16886C28.7486 7.44158 28.8104 7.67809 28.9339 7.87837C29.0618 8.07866 29.2344 8.24911 29.4517 8.38974C29.669 8.5261 29.9098 8.64116 30.174 8.73491C30.4382 8.82866 30.7045 8.90749 30.973 8.97141L32.2003 9.27823C32.6946 9.39329 33.1697 9.54883 33.6257 9.74485C34.0859 9.94087 34.4972 10.188 34.8594 10.4863C35.2259 10.7846 35.5156 11.1447 35.7287 11.5666C35.9418 11.9885 36.0483 12.4828 36.0483 13.0495C36.0483 13.8166 35.8523 14.492 35.4602 15.0758C35.0682 15.6554 34.5014 16.1092 33.7599 16.4373C33.0227 16.7612 32.13 16.9231 31.0817 16.9231C30.0632 16.9231 29.179 16.7654 28.429 16.4501C27.6832 16.1348 27.0994 15.6745 26.6776 15.0694C26.2599 14.4643 26.0341 13.7271 26 12.8578H28.3331C28.3672 13.3137 28.5078 13.693 28.755 13.9956C29.0021 14.2981 29.3239 14.524 29.7202 14.6731C30.1207 14.8223 30.5682 14.8968 31.0625 14.8968C31.5781 14.8968 32.0298 14.8201 32.4176 14.6667C32.8097 14.5091 33.1165 14.2917 33.3381 14.0147C33.5597 13.7335 33.6726 13.4054 33.6768 13.0304C33.6726 12.6895 33.5724 12.4082 33.3764 12.1866C33.1804 11.9608 32.9055 11.7733 32.5518 11.6241C32.2024 11.4707 31.7933 11.3343 31.3246 11.215L29.8352 10.8315C28.7571 10.5545 27.9048 10.1348 27.2784 9.57227C26.6563 9.00551 26.3452 8.25337 26.3452 7.31587C26.3452 6.54457 26.554 5.86914 26.9716 5.2896C27.3935 4.71005 27.9666 4.26048 28.6911 3.94087C29.4155 3.61701 30.2358 3.45508 31.152 3.45508C32.081 3.45508 32.8949 3.61701 33.5938 3.94087C34.2969 4.26048 34.8487 4.70579 35.2493 5.27681C35.6499 5.84357 35.8565 6.49556 35.8693 7.23278H33.5874Z" fill="white"/>
<defs>
<linearGradient id="paint0_linear_89_121" x1="3.36829" y1="19.6317" x2="19.6318" y2="3.36824" gradientUnits="userSpaceOnUse">
<stop stop-color="#364AFF"/>
<stop offset="1" stop-color="#FC54FF"/>
</linearGradient>
<radialGradient id="paint1_radial_89_121" cx="0" cy="0" r="1" gradientUnits="userSpaceOnUse" gradientTransform="translate(11.3633 9.81449) scale(13.36)">
<stop offset="0.095" stop-color="#8D00DB" stop-opacity="0.66"/>
<stop offset="0.2822" stop-color="#9F0DE1" stop-opacity="0.523"/>
<stop offset="0.6541" stop-color="#CC30F0" stop-opacity="0.252"/>
<stop offset="1" stop-color="#FC54FF" stop-opacity="0"/>
</radialGradient>
<linearGradient id="paint2_linear_89_121" x1="-2.19677" y1="21.8362" x2="21.2658" y2="-1.6264" gradientUnits="userSpaceOnUse">
<stop stop-color="#FC54FF"/>
<stop offset="0.4062" stop-color="#FD9BFF"/>
<stop offset="1" stop-color="white"/>
</linearGradient>
<linearGradient id="paint3_linear_89_121" x1="4.30271" y1="27.1915" x2="30.3522" y2="1.14194" gradientUnits="userSpaceOnUse">
<stop stop-color="#FC54FF"/>
<stop offset="0.4062" stop-color="#FD9BFF"/>
<stop offset="1" stop-color="white"/>
</linearGradient>
<linearGradient id="paint4_linear_89_121" x1="5.14844" y1="17.6867" x2="15.2722" y2="7.56301" gradientUnits="userSpaceOnUse">
<stop stop-color="#364AFF"/>
<stop offset="1" stop-color="#FC54FF"/>
</linearGradient>
<linearGradient id="paint5_linear_89_121" x1="5.52714" y1="18.8255" x2="14.1981" y2="10.1545" gradientUnits="userSpaceOnUse">
<stop stop-color="#364AFF"/>
<stop offset="1" stop-color="#FC54FF"/>
</linearGradient>
<linearGradient id="paint6_linear_89_121" x1="0.086722" y1="23.1199" x2="32.0871" y2="-8.88049" gradientUnits="userSpaceOnUse">
<stop stop-color="#FC54FF"/>
<stop offset="0.4062" stop-color="#FD9BFF"/>
<stop offset="1" stop-color="white"/>
</linearGradient>
<linearGradient id="paint7_linear_89_121" x1="7.46789" y1="13.1907" x2="18.9298" y2="1.7287" gradientUnits="userSpaceOnUse">
<stop stop-color="#FC54FF"/>
<stop offset="0.4062" stop-color="#FD9BFF"/>
<stop offset="1" stop-color="white"/>
</linearGradient>
<linearGradient id="paint8_linear_89_121" x1="8.22823" y1="10.485" x2="18.1954" y2="0.51771" gradientUnits="userSpaceOnUse">
<stop stop-color="#FC54FF"/>
<stop offset="0.4062" stop-color="#FD9BFF"/>
<stop offset="1" stop-color="white"/>
</linearGradient>
<linearGradient id="paint9_linear_89_121" x1="2.0481" y1="12.9714" x2="10.9952" y2="4.02425" gradientUnits="userSpaceOnUse">
<stop stop-color="#FC54FF"/>
<stop offset="1" stop-color="#FDA0FF"/>
</linearGradient>
<linearGradient id="paint10_linear_89_121" x1="-7.51981" y1="22.5393" x2="11.08" y2="3.93952" gradientUnits="userSpaceOnUse">
<stop stop-color="#FC54FF"/>
<stop offset="0.4062" stop-color="#FD9BFF"/>
<stop offset="1" stop-color="white"/>
</linearGradient>
<linearGradient id="paint11_linear_89_121" x1="3.63287" y1="21.2471" x2="19.901" y2="4.97902" gradientUnits="userSpaceOnUse">
<stop stop-color="#FC54FF"/>
<stop offset="0.4062" stop-color="#FD9BFF"/>
<stop offset="1" stop-color="white"/>
</linearGradient>
<linearGradient id="paint12_linear_89_121" x1="10.6032" y1="14.2843" x2="22.7698" y2="2.11766" gradientUnits="userSpaceOnUse">
<stop stop-color="#FC54FF"/>
<stop offset="0.4062" stop-color="#FD9BFF"/>
<stop offset="1" stop-color="white"/>
</linearGradient>
<linearGradient id="paint13_linear_89_121" x1="10.9692" y1="13.9212" x2="19.8231" y2="5.06725" gradientUnits="userSpaceOnUse">
<stop stop-color="#364AFF"/>
<stop offset="1" stop-color="#FC54FF"/>
</linearGradient>
<linearGradient id="paint14_linear_89_121" x1="13.8992" y1="11.0006" x2="19.3014" y2="5.59842" gradientUnits="userSpaceOnUse">
<stop stop-color="#364AFF"/>
<stop offset="1" stop-color="#FC54FF"/>
</linearGradient>
<linearGradient id="paint15_linear_89_121" x1="3.70074" y1="11.2712" x2="8.78517" y2="6.18671" gradientUnits="userSpaceOnUse">
<stop stop-color="#364AFF"/>
<stop offset="1" stop-color="#FC54FF"/>
</linearGradient>
<linearGradient id="paint16_linear_89_121" x1="5.51427" y1="10.9591" x2="10.7677" y2="5.70575" gradientUnits="userSpaceOnUse">
<stop stop-color="#364AFF"/>
<stop offset="1" stop-color="#FC54FF"/>
</linearGradient>
<linearGradient id="paint17_linear_89_121" x1="1.71796" y1="11.7205" x2="7.33319" y2="6.10522" gradientUnits="userSpaceOnUse">
<stop stop-color="#364AFF"/>
<stop offset="1" stop-color="#FC54FF"/>
</linearGradient>
<clipPath id="clip0_89_121">
<rect width="23" height="23" fill="white"/>
</clipPath>
</defs>
</svg>
